<?xml version="1.0" standalone="no"?>
<!DOCTYPE svg PUBLIC "-//W3C//DTD SVG 20010904//EN"
 "http://www.w3.org/TR/2001/REC-SVG-20010904/DTD/svg10.dtd">
<svg version="1.0" xmlns="http://www.w3.org/2000/svg"
 width="267.000000pt" height="267.000000pt" viewBox="0 0 267.000000 267.000000"
 preserveAspectRatio="xMidYMid meet">
<metadata>
Created by potrace 1.14, written by Peter Selinger 2001-2017
</metadata>
<g transform="translate(0.000000,267.000000) scale(0.100000,-0.100000)"
fill="#000000" stroke="none">
<path d="M1246 2478 c-8 -13 -17 -34 -20 -48 -3 -14 -9 -40 -15 -58 -5 -18
-10 -36 -11 -40 -1 -11 -20 -85 -26 -102 -3 -8 -5 -15 -4 -15 1 0 -6 -17 -15
-37 -8 -21 -13 -38 -9 -38 3 0 -1 -7 -9 -15 -8 -8 -25 -31 -38 -52 -12 -21
-62 -77 -110 -124 -75 -74 -111 -124 -123 -174 -2 -5 -6 -17 -9 -25 -4 -8 -9
-26 -11 -40 -3 -14 -5 -25 -6 -25 -1 0 -4 -11 -5 -25 -2 -14 -6 -34 -9 -45 -2
-11 -5 -23 -5 -26 -1 -4 -16 -29 -35 -57 -19 -27 -32 -53 -29 -56 4 -3 1 -6
-5 -6 -7 0 -12 -5 -12 -11 0 -6 -7 -17 -15 -26 -8 -8 -13 -19 -10 -24 4 -5 2
-9 -3 -9 -8 0 -30 -66 -33 -97 0 -5 -4 -12 -8 -18 -9 -11 -25 -66 -23 -77 1
-5 -1 -8 -6 -8 -4 0 -8 -31 -10 -69 l-3 -69 28 3 c16 1 38 7 50 13 11 6 22 9
25 7 3 -3 26 6 51 20 l47 24 0 -43 c0 -30 -6 -48 -19 -60 -11 -10 -29 -41 -41
-69 -34 -84 -54 -121 -68 -130 -7 -5 -10 -12 -7 -18 4 -5 2 -9 -3 -9 -6 0 -12
-7 -16 -15 -3 -8 -2 -14 2 -14 19 3 25 -2 12 -11 -11 -7 -6 -8 18 -5 30 3 32
1 32 -25 l0 -29 36 15 c31 13 154 27 154 18 0 -8 -73 -33 -81 -28 -5 3 -7 -1
-4 -8 5 -12 55 -19 55 -8 0 3 61 6 135 6 74 1 135 -1 135 -5 0 -4 17 -8 37 -9
21 -2 40 -6 43 -10 3 -4 16 -8 29 -10 30 -3 139 -57 167 -83 11 -10 24 -19 28
-19 16 0 151 -150 186 -206 23 -37 31 -28 15 16 -8 22 -13 40 -11 40 2 0 -2
20 -10 45 -7 25 -10 45 -6 45 13 0 97 -84 156 -155 84 -101 86 -104 86 -116 0
-5 12 -22 26 -37 25 -25 26 -26 21 -5 -3 12 -1 23 3 25 19 7 28 268 15 403 -4
33 -7 67 -7 75 0 13 -13 75 -54 270 -7 31 -51 174 -67 215 -7 17 -12 33 -13
38 -1 4 -3 10 -4 15 -1 4 -2 10 -1 15 0 4 -4 7 -9 7 -6 0 -10 7 -10 15 0 8
-28 72 -62 143 -42 87 -62 140 -63 169 -1 24 9 100 22 170 13 71 25 148 27
173 3 25 5 45 6 45 1 0 3 7 5 16 1 9 14 40 28 69 24 50 25 55 10 80 -8 15 -35
37 -59 51 l-43 23 -21 -21 c-11 -12 -20 -25 -20 -28 0 -12 -26 -33 -46 -37
-13 -3 -18 -11 -16 -27 2 -22 -48 -81 -70 -81 -5 0 -6 -4 -3 -10 3 -6 -1 -7
-9 -4 -16 6 -22 20 -30 68 -3 16 -8 31 -10 34 -3 3 -1 11 5 18 7 8 7 14 -1 19
-7 4 -7 12 0 26 6 10 7 19 3 19 -4 0 3 9 16 21 12 12 20 28 17 37 -3 9 -10 38
-17 65 -8 33 -21 55 -43 72 -48 39 -49 40 -84 84 -38 46 -64 52 -86 19z"/>
</g>
</svg>
